# xmcd
#
# Track frame offsets: 
#        150
#        24823
#        43590
#        59706
#        80509
#        99731
#        122126
#        142519
#        167240
#        190382
#        213749
#        225650
#        251000
#
# Disc length: 3819 seconds
#
# Revision: 1
# Processed by: cddbd v1.5.1PL0 Copyright (c) Steve Scherf et al.
# Submitted via: ExactAudioCopy v0.95a5
#
DISCID=b40ee90d
DTITLE=Various Artist - The Elegant Jazz in History II
DYEAR=1900
DGENRE=Jazz
TTITLE0=Cassandra Wilson - Time After Time
TTITLE1=Jahlisa and Greg Osby - Hey Jude
TTITLE2=The Kenny Burrell Trio - Gee Baby, Ain't I Good To You
TTITLE3=Eliane Elias - The Continental
TTITLE4=Stanley Jordan - Eleanor Rigby
TTITLE5=Nancy Wilson - I Left My Heart In San Francisco
TTITLE6=Anna Maria Alberghetti - I Only Nave Eyes For You
TTITLE7=Nit King Cole - Autumn Leaves
TTITLE8=Ron Carter - My Romance
TTITLE9=Blossom Dearie - Quiet Nights Of Quiet Starts
TTITLE10=Peggy Lee - As Time Goes By
TTITLE11=Jeri Southern - When I Fall In Love
TTITLE12=Kei Kobayashi - You'd Be So Nice To Come Home To
EXTD=
EXTT0=
EXTT1=
EXTT2=
EXTT3=
EXTT4=
EXTT5=
EXTT6=
EXTT7=
EXTT8=
EXTT9=
EXTT10=
EXTT11=
EXTT12=
PLAYORDER=
